<svg viewBox="0 0 923 638" fill="none" xmlns="http://www.w3.org/2000/svg">
<g clip-path="url(#clip0_23_44)">
<path d="M91.169 590.838C91.5674 605.708 94.0586 620.448 98.569 634.623C98.669 634.952 98.78 635.276 98.888 635.605H126.501C126.472 635.31 126.442 634.981 126.413 634.623C124.572 613.457 135.09 486.17 147.782 464.14C146.67 465.927 89.028 523.584 91.169 590.838Z" fill="#65bd9d"/>
<path d="M93.2411 634.623C93.4721 634.952 93.7121 635.281 93.9581 635.605H114.674C114.517 635.325 114.335 634.996 114.124 634.623C110.702 628.447 100.573 609.981 91.1712 590.838C81.0712 570.266 71.7971 548.914 72.5781 541.186C72.3361 542.928 65.3441 596.062 93.2411 634.623Z" fill="#65bd9d"/>
<path d="M429.019 612.86C429.222 620.415 430.487 627.904 432.779 635.106C432.83 635.273 432.886 635.437 432.941 635.605H446.97C446.955 635.455 446.94 635.288 446.925 635.106C445.99 624.352 451.334 559.683 457.782 548.49C457.217 549.398 427.932 578.691 429.019 612.86Z" fill="#65bd9d"/>
<path d="M430.072 635.106C430.189 635.273 430.311 635.44 430.436 635.605H440.961C440.882 635.462 440.789 635.295 440.682 635.106C438.943 631.968 433.797 622.586 429.02 612.86C423.889 602.408 419.177 591.56 419.574 587.634C419.451 588.519 415.899 615.514 430.072 635.106Z" fill="#65bd9d"/>
<path d="M345.964 182.157L310.254 207.557L332.474 209.937L363.424 183.747L345.964 182.157Z" fill="#3F3D56"/>
<path d="M206.253 615.845L227.731 615.844L237.949 533L206.249 533.001L206.253 615.845Z" fill="#9F616A"/>
<path d="M200.774 608.833L243.072 608.831H243.074C250.223 608.831 257.079 611.671 262.134 616.726C267.189 621.781 270.029 628.637 270.03 635.786V636.662L200.775 636.665L200.774 608.833Z" fill="#2F2E41"/>
<path d="M192.75 319.945C192.75 319.945 183.441 330.467 198.855 371.483L196.14 596.386L246.09 595.411L257.069 485.706L277.06 325.614L192.75 319.945Z" fill="#2F2E41"/>
<path d="M142.879 284.442C139.928 284.434 137.096 283.276 134.985 281.215C132.873 279.153 131.648 276.349 131.57 273.399L129.226 185.062L169.334 108.969C170.245 107.255 171.578 105.802 173.206 104.747C174.835 103.692 176.705 103.069 178.641 102.938L209.208 100.976L206.568 279.041L143.873 284.399C143.541 284.428 143.209 284.442 142.879 284.442Z" fill="var(--secondary)"/>
<path d="M294.191 351.039L293.644 350.956C229.744 341.21 181.524 331.867 181.045 331.774L180.446 331.658L197.197 290.916C197.064 286.658 193.438 167.107 200.38 132.759C207.099 99.5083 238.773 94.0591 242.383 93.5464L246.007 81.5381L291.794 105.364L299.78 132.848L301.402 208.174L294.191 351.039Z" fill="#3F3D56"/>
<path d="M231.268 237C201.768 237 177.768 204.925 177.768 165.5C177.768 126.075 201.768 94 231.268 94C260.768 94 284.768 126.075 284.768 165.5C284.768 204.925 260.768 237 231.268 237ZM231.268 101C205.628 101 184.768 129.935 184.768 165.5C184.768 201.065 205.628 230 231.268 230C256.908 230 277.768 201.065 277.768 165.5C277.768 129.935 256.908 101 231.268 101Z" fill="var(--secondary)"/>
<path d="M321.768 196C319.706 196 317.666 196.426 315.777 197.252C313.888 198.078 312.19 199.286 310.791 200.801H233.83L205.64 206.801L210.268 242.5L310.549 220.933C312.21 222.808 314.313 224.238 316.668 225.091C319.023 225.944 321.553 226.193 324.029 225.816C326.505 225.44 328.848 224.449 330.842 222.934C332.837 221.42 334.42 219.43 335.448 217.146C336.475 214.862 336.915 212.357 336.725 209.86C336.536 207.362 335.724 204.952 334.363 202.849C333.003 200.747 331.138 199.018 328.938 197.822C326.737 196.625 324.273 195.999 321.768 196Z" fill="#9F616A"/>
<path d="M316.117 76.4795C330.602 61.9946 330.602 38.5098 316.117 24.0249C301.633 9.53994 278.148 9.53996 263.663 24.0249C249.178 38.5098 249.178 61.9946 263.663 76.4795C278.148 90.9644 301.633 90.9645 316.117 76.4795Z" fill="#9F616A"/>
<path d="M255.006 20.5999L253.207 16.9808L262.255 12.4854C262.255 12.4854 272.236 -3.75517 290.298 0.808782C308.359 5.37273 316.485 8.10416 316.485 8.10416L325.51 12.6452L320.981 17.152L329.107 19.8835L323.678 22.5807L329.994 26.2113L326.594 44.8227C326.594 44.8227 320.947 30.7067 310.089 36.1011C299.232 41.4955 279.372 33.3125 279.372 33.3125L262.118 66.704C262.118 66.704 258.559 54.9986 252.213 58.1198C252.213 58.1198 235.999 32.2993 255.006 20.5999Z" fill="#2F2E41"/>
<path d="M577.293 248.948L575.708 219.215L559.708 206.215L550.439 233.748L498.596 302.892C496.145 303.284 493.858 304.371 492.005 306.023C490.152 307.675 488.811 309.823 488.141 312.213C487.471 314.603 487.499 317.135 488.223 319.509C488.946 321.884 490.335 324.001 492.224 325.611C494.114 327.221 496.425 328.256 498.884 328.594C501.343 328.931 503.848 328.558 506.101 327.517C508.355 326.475 510.263 324.811 511.599 322.719C512.936 320.628 513.646 318.197 513.645 315.715C513.645 315.54 513.626 315.37 513.619 315.196L577.293 248.948Z" fill="#FFB7B7"/>
<path d="M608.103 623.687L595.844 623.686L590.011 576.398L608.105 576.399L608.103 623.687Z" fill="#FFB7B7"/>
<path d="M611.23 635.571L571.699 635.569V635.069C571.7 630.988 573.321 627.075 576.206 624.19C579.092 621.304 583.005 619.683 587.086 619.683L611.231 619.684L611.23 635.571Z" fill="#2F2E41"/>
<path d="M665.103 623.687L652.844 623.686L647.011 576.398L665.105 576.399L665.103 623.687Z" fill="#FFB7B7"/>
<path d="M668.23 635.571L628.699 635.569V635.069C628.7 630.988 630.321 627.075 633.206 624.19C636.092 621.304 640.005 619.683 644.086 619.683L668.231 619.684L668.23 635.571Z" fill="#2F2E41"/>
<path d="M652.145 124.736C657.336 103.305 661.733 79.1325 651.944 59.3939C645.152 45.6984 620.026 41.0863 605.623 46.0203C591.219 50.9543 580.806 64.3405 576.226 78.9357C571.646 93.5309 572.178 109.258 574.174 124.431C600.664 123.922 627.154 123.413 652.145 124.736Z" fill="#2F2E41"/>
<path d="M622.26 120.945C637.229 112.762 642.73 93.9933 634.547 79.0239C626.364 64.0546 607.596 58.5531 592.626 66.7361C577.657 74.9191 572.156 93.6878 580.339 108.657C588.522 123.627 607.29 129.128 622.26 120.945Z" fill="#FFB8B8"/>
<path d="M645.205 87.4773C645.303 82.2784 644.356 77.1128 642.418 72.2874C640.481 67.4621 637.593 63.0754 633.926 59.3881C630.26 55.7008 625.89 52.788 621.076 50.823C616.262 48.8579 611.101 47.8806 605.902 47.9492C600.703 48.0177 595.57 49.1307 590.809 51.222C586.049 53.3133 581.757 56.3402 578.189 60.1228C574.621 63.9055 571.85 68.3668 570.04 73.2416C568.231 78.1163 567.419 83.3051 567.654 88.4996C594.094 88.5558 620.533 88.6119 645.205 87.4773Z" fill="#2F2E41"/>
<path d="M557.839 279.945C557.839 279.945 552.812 352.956 555.54 375.228C558.268 397.5 587.97 592.211 587.97 592.211L610.374 592.171L617.026 362.717L643.52 594.401L666.689 591.992L679.833 365.362C679.833 365.362 677.772 280.516 661.02 272.008L557.839 279.945Z" fill="#2F2E41"/>
<path d="M592.982 352.319C576.526 352.313 560.307 348.386 545.672 340.862L545.352 340.699L557.735 258.527L556.931 160.593C556.909 157.905 557.423 155.24 558.442 152.752C559.461 150.265 560.966 148.006 562.868 146.106C564.769 144.206 567.03 142.704 569.519 141.687C572.007 140.67 574.673 140.16 577.361 140.184L643.812 140.794C646.754 140.821 649.659 141.453 652.346 142.651C655.034 143.849 657.446 145.587 659.433 147.757C661.419 149.928 662.938 152.483 663.895 155.266C664.851 158.048 665.225 160.998 664.993 163.931L658.774 242.441L679.339 306.165L675.765 310.917C666.128 323.771 653.63 334.205 639.261 341.391C624.893 348.578 609.048 352.319 592.982 352.319Z" fill="#3F3D56"/>
<path d="M550.255 224.673L557.218 153.621L559.456 150.436C560.989 148.255 562.938 146.399 565.19 144.973C567.443 143.547 569.955 142.58 572.582 142.127C575.209 141.674 577.9 141.745 580.5 142.335C583.1 142.925 585.558 144.023 587.732 145.565L589.65 146.926L587.757 218.931L550.255 224.673Z" fill="#3F3D56"/>
<path d="M835.579 571.806C853.581 566.833 861.262 594.169 843.307 599.301C825.306 604.273 817.625 576.937 835.579 571.806Z" fill="#3F3D56"/>
<path d="M735.772 606.989C753.774 602.017 761.455 629.353 743.5 634.484C725.499 639.456 717.817 612.12 735.772 606.989Z" fill="#3F3D56"/>
<path d="M695.379 318.681L695.657 318.603L742.024 444.485L748.137 442.767L701.438 315.982C701.336 314.028 700.57 312.167 699.266 310.709C697.961 309.25 696.197 308.282 694.266 307.964C671.078 304.298 661.679 324.881 661.679 324.881L661.772 325.018L709.177 453.718L715.29 451.999L669.28 327.087C683.287 313.233 695.379 318.681 695.379 318.681Z" fill="#3F3D56"/>
<path d="M748.519 614.07C741.904 614.013 735.479 611.845 730.182 607.882C724.884 603.919 720.991 598.368 719.068 592.037C710.219 563.072 689.339 493.672 686.572 474.838C682.97 450.316 703.267 443.342 703.72 443.193C704.266 443.009 712.427 440.725 723.721 437.564C742.92 432.191 771.934 424.07 773 423.591C777.496 422.028 782.266 421.41 787.011 421.777C791.757 422.143 796.375 423.486 800.578 425.721C804.909 427.999 808.731 431.134 811.813 434.936C814.894 438.738 817.171 443.126 818.503 447.835L848.369 554.088C850.212 560.602 849.695 567.557 846.91 573.727C844.124 579.897 839.25 584.885 833.145 587.811C810.101 598.882 776.304 613.651 748.974 614.068C748.823 614.069 748.67 614.07 748.519 614.07Z" fill="var(--secondary)"/>
<path d="M690.448 314.327L675.435 226.629L673.759 197.032L649.488 204.983L669.958 319.817C669.132 322.052 668.936 324.471 669.392 326.81C669.848 329.148 670.938 331.317 672.543 333.077C674.148 334.838 676.207 336.124 678.494 336.793C680.78 337.463 683.207 337.491 685.509 336.875C687.81 336.258 689.898 335.02 691.543 333.297C693.189 331.574 694.329 329.431 694.839 327.104C695.349 324.776 695.209 322.353 694.434 320.1C693.66 317.847 692.281 315.85 690.448 314.327Z" fill="#FFB7B7"/>
<path d="M679.541 221.129L641.658 219.068L632.757 147.59L633.624 146.838C635.757 144.988 638.234 143.577 640.914 142.687C643.594 141.797 646.423 141.444 649.24 141.65C652.056 141.856 654.804 142.617 657.326 143.887C659.848 145.158 662.094 146.915 663.935 149.056L665.687 151.094L665.713 151.223L679.541 221.129Z" fill="#3F3D56"/>
<path d="M833.809 570.283L795.089 439.231L704.04 464.962L703.496 463.038L796.447 436.769L796.727 437.717L835.727 569.717L833.809 570.283Z" fill="#3F3D56"/>
<path d="M145.769 275.046L141.646 185.145L183.878 102.591L185.658 103.502L143.669 185.583L147.767 274.954L145.769 275.046Z" fill="#3F3D56"/>
<path d="M922 637.604H1C0.734784 637.604 0.480429 637.499 0.292892 637.312C0.105356 637.124 0 636.87 0 636.604C0 636.339 0.105356 636.085 0.292892 635.897C0.480429 635.71 0.734784 635.604 1 635.604H922C922.265 635.604 922.52 635.71 922.707 635.897C922.895 636.085 923 636.339 923 636.604C923 636.87 922.895 637.124 922.707 637.312C922.52 637.499 922.265 637.604 922 637.604Z" fill="#CCCCCC"/>
<path d="M210.761 249.192L201.96 223.012L199.831 135.744L203.581 123.362C204.931 118.905 207.166 114.767 210.154 111.196C213.141 107.624 216.819 104.692 220.967 102.576C225.114 100.459 229.646 99.2021 234.292 98.8793C238.937 98.5566 243.599 99.175 248 100.697C252.4 102.22 256.448 104.615 259.901 107.739C263.353 110.864 266.14 114.653 268.093 118.88C270.046 123.107 271.125 127.685 271.267 132.339C271.408 136.993 270.608 141.628 268.916 145.966L248.816 197.472L249.838 199.455L293.384 199.102L308.852 226.945L210.761 249.192Z" fill="#3F3D56"/>
<path d="M488.166 435.492L488.135 435.498L439.871 445.161L398.352 461.881C397.815 462.097 397.241 462.205 396.662 462.2C396.084 462.194 395.512 462.074 394.979 461.848C394.447 461.621 393.964 461.292 393.559 460.878C393.154 460.465 392.834 459.976 392.618 459.44C392.567 459.313 392.523 459.185 392.484 459.055L362.152 357.492C361.834 356.44 361.921 355.307 362.398 354.316C362.876 353.326 363.707 352.55 364.729 352.144L407.007 335.118L407.038 335.112L455.302 325.449L496.821 308.729C497.905 308.293 499.118 308.305 500.194 308.762C501.269 309.22 502.118 310.086 502.555 311.17C502.606 311.297 502.65 311.425 502.689 311.556L533.02 413.118C533.339 414.17 533.252 415.303 532.775 416.294C532.297 417.284 531.466 418.06 530.444 418.466L488.166 435.492Z" fill="var(--body)"/>
<path d="M436.375 367.272C425.307 363.366 413.868 359.944 402.376 357.102L401.8 356.96L407.634 376.495L437.358 367.618L436.375 367.272ZM408.089 375.652L402.789 357.904C413.726 360.627 424.61 363.875 435.166 367.565L408.089 375.652ZM494.371 393.68C489.219 390.766 483.993 387.977 478.693 385.31C477.231 384.574 475.766 383.849 474.295 383.134C465.32 378.768 456.208 374.787 446.959 371.193L446.851 371.151L409.38 382.341L419.612 416.605L495.065 394.072L494.371 393.68ZM420.068 415.762L410.223 382.797L446.823 371.867C455.742 375.335 464.559 379.177 473.274 383.393C474.787 384.124 476.295 384.867 477.797 385.62C483.046 388.248 488.228 391.001 493.343 393.879L420.068 415.762ZM494.371 393.68C489.219 390.766 483.993 387.977 478.693 385.31C477.231 384.574 475.766 383.849 474.295 383.134C465.32 378.768 456.208 374.787 446.959 371.193L446.851 371.151L409.38 382.341L419.612 416.605L495.065 394.072L494.371 393.68ZM420.068 415.762L410.223 382.797L446.823 371.867C455.742 375.335 464.559 379.177 473.274 383.393C474.787 384.124 476.295 384.867 477.797 385.62C483.046 388.248 488.228 391.001 493.343 393.879L420.068 415.762ZM436.375 367.272C425.307 363.366 413.868 359.944 402.376 357.102L401.8 356.96L407.634 376.495L437.358 367.618L436.375 367.272ZM408.089 375.652L402.789 357.904C413.726 360.627 424.61 363.875 435.166 367.565L408.089 375.652ZM436.375 367.272C425.307 363.366 413.868 359.944 402.376 357.102L401.8 356.96L407.634 376.495L437.358 367.618L436.375 367.272ZM408.089 375.652L402.789 357.904C413.726 360.627 424.61 363.875 435.166 367.565L408.089 375.652ZM494.371 393.68C489.219 390.766 483.993 387.977 478.693 385.31C477.231 384.574 475.766 383.849 474.295 383.134C465.32 378.768 456.208 374.787 446.959 371.193L446.851 371.151L409.38 382.341L419.612 416.605L495.065 394.072L494.371 393.68ZM420.068 415.762L410.223 382.797L446.823 371.867C455.742 375.335 464.559 379.177 473.274 383.393C474.787 384.124 476.295 384.867 477.797 385.62C483.046 388.248 488.228 391.001 493.343 393.879L420.068 415.762ZM389.209 432.053L389.403 432.702L415.057 425.041L417.87 434.459L392.215 442.121L392.409 442.77L418.713 434.915L415.512 424.197L389.209 432.053ZM426.305 439.015L428.271 445.597L428.902 445.343L427.149 439.471L527.18 409.597L526.986 408.947L426.305 439.015ZM522.234 393.033L522.04 392.383L421.358 422.451L424.559 433.169L525.24 403.101L525.046 402.452L425.015 432.326L422.202 422.907L522.234 393.033ZM447.461 363.894C432.128 358.003 416.379 353.262 400.342 349.71L398.378 343.133L397.746 343.387L399.726 350.015L400.39 350.416C416.364 353.963 432.053 358.693 447.326 364.567L447.434 364.609L508.315 346.427L508.121 345.778L447.461 363.894ZM400.944 377.786L375.29 385.447L375.484 386.097L401.788 378.241L392.062 345.676L391.431 345.93L400.944 377.786ZM510.061 352.273L456.539 368.257L457.411 368.623C465.62 372.077 473.807 375.896 481.973 380.079C483.134 380.673 484.294 381.275 485.453 381.885C491.217 384.913 496.937 388.109 502.612 391.473L503.243 391.63L520.294 386.537L520.1 385.888L503.089 390.968C497.474 387.636 491.807 384.464 486.088 381.453C484.944 380.851 483.798 380.255 482.651 379.666C474.658 375.56 466.621 371.794 458.542 368.367L510.255 352.923L510.061 352.273ZM394.155 448.616L394.349 449.266L420.003 441.604L421.955 448.139L422.587 447.885L420.459 440.761L394.155 448.616ZM377.23 391.943L377.424 392.592L403.078 384.931L412.923 417.896L387.269 425.557L387.463 426.207L413.767 418.351L403.534 384.087L377.23 391.943ZM436.375 367.272C425.307 363.366 413.868 359.944 402.376 357.102L401.8 356.96L407.634 376.495L437.358 367.618L436.375 367.272ZM408.089 375.652L402.789 357.904C413.726 360.627 424.61 363.875 435.166 367.565L408.089 375.652ZM494.371 393.68C489.219 390.766 483.993 387.977 478.693 385.31C477.231 384.574 475.766 383.849 474.295 383.134C465.32 378.768 456.208 374.787 446.959 371.193L446.851 371.151L409.38 382.341L419.612 416.605L495.065 394.072L494.371 393.68ZM420.068 415.762L410.223 382.797L446.823 371.867C455.742 375.335 464.559 379.177 473.274 383.393C474.787 384.124 476.295 384.867 477.797 385.62C483.046 388.248 488.228 391.001 493.343 393.879L420.068 415.762ZM436.375 367.272C425.307 363.366 413.868 359.944 402.376 357.102L401.8 356.96L407.634 376.495L437.358 367.618L436.375 367.272ZM408.089 375.652L402.789 357.904C413.726 360.627 424.61 363.875 435.166 367.565L408.089 375.652ZM494.371 393.68C489.219 390.766 483.993 387.977 478.693 385.31C477.231 384.574 475.766 383.849 474.295 383.134C465.32 378.768 456.208 374.787 446.959 371.193L446.851 371.151L409.38 382.341L419.612 416.605L495.065 394.072L494.371 393.68ZM420.068 415.762L410.223 382.797L446.823 371.867C455.742 375.335 464.559 379.177 473.274 383.393C474.787 384.124 476.295 384.867 477.797 385.62C483.046 388.248 488.228 391.001 493.343 393.879L420.068 415.762Z" fill="white"/>
<path d="M444.993 370.331C447.449 378.556 438.028 401.328 438.028 401.328C438.028 401.328 417.663 387.452 415.206 379.226C414.027 375.277 414.464 371.02 416.423 367.393C418.382 363.765 421.702 361.065 425.652 359.885C429.602 358.706 433.858 359.144 437.486 361.102C441.113 363.061 443.813 366.381 444.993 370.331Z" fill="var(--secondary)"/>
<path d="M436.715 372.098C437.117 373.445 437.111 374.88 436.697 376.223C436.283 377.566 435.48 378.756 434.39 379.643C433.3 380.53 431.971 381.074 430.572 381.205C429.173 381.337 427.766 381.051 426.53 380.383C425.293 379.715 424.283 378.696 423.625 377.454C422.968 376.211 422.694 374.802 422.838 373.404C422.982 372.006 423.537 370.682 424.433 369.6C425.329 368.517 426.526 367.725 427.873 367.323C428.767 367.055 429.705 366.967 430.634 367.062C431.562 367.157 432.462 367.435 433.284 367.878C434.105 368.322 434.83 368.922 435.419 369.647C436.008 370.371 436.448 371.204 436.715 372.098Z" fill="white"/>
<path d="M440.039 412.252C442.353 412.252 444.229 410.376 444.229 408.062C444.229 405.748 442.353 403.872 440.039 403.872C437.725 403.872 435.849 405.748 435.849 408.062C435.849 410.376 437.725 412.252 440.039 412.252Z" fill="var(--secondary)"/>
<path d="M485.758 352.972L456.639 361.668C456.603 361.68 456.566 361.688 456.528 361.692L463.176 333.724C463.215 333.551 463.3 333.391 463.422 333.261C463.544 333.131 463.698 333.035 463.869 332.984C464.039 332.933 464.221 332.928 464.394 332.97C464.567 333.012 464.726 333.1 464.854 333.223L478.878 346.471L479.549 347.105L485.758 352.972Z" fill="white"/>
<path opacity="0.2" d="M485.758 352.972L475.816 355.941L478.58 347.395L478.778 346.779L478.878 346.471L479.549 347.105L485.758 352.972Z" fill="black"/>
<path d="M501.972 348.13L476.786 355.652L479.549 347.105L479.748 346.49L483.349 335.352C483.419 335.177 483.525 335.019 483.661 334.888C483.796 334.757 483.957 334.656 484.134 334.592C484.311 334.527 484.5 334.5 484.688 334.513C484.876 334.527 485.059 334.579 485.225 334.667C485.269 334.694 485.311 334.723 485.351 334.754L501.972 348.13Z" fill="white"/>
</g>
<defs>
<clipPath id="clip0_23_44">
<rect width="923" height="637.604" fill="white"/>
</clipPath>
</defs>
</svg>
