<svg viewBox="0 0 760 616" fill="none" xmlns="http://www.w3.org/2000/svg">
<g clip-path="url(#clip0_23_88)">
<path d="M606.165 112.083C602.224 155.507 590.997 201.294 573.388 245.473C551.613 300.106 521.862 348.226 487.351 384.632L485.436 382.962C519.78 346.732 549.395 298.823 571.079 244.416C590.677 195.25 602.333 144.085 604.804 96.4746L607.251 96.8843C606.991 101.913 606.63 106.979 606.165 112.083Z" fill="#F2F2F2"/>
<path d="M621.862 364.278C573.39 441.394 514.582 496.494 456.272 519.426L455.092 517.263C512.999 494.489 571.462 439.672 619.713 362.908L621.862 364.278Z" fill="#F2F2F2"/>
<path d="M604.989 166.147C601.048 209.57 589.82 255.358 572.211 299.537C550.436 354.17 520.685 402.29 486.175 438.696L484.26 437.026C518.603 400.796 548.219 352.887 569.903 298.48C589.5 249.314 601.157 198.149 603.627 150.539L606.075 150.948C605.815 155.977 605.453 161.043 604.989 166.147Z" fill="#F2F2F2"/>
<path d="M60.8256 277.628H29.022C28.3425 277.629 27.6715 277.477 27.0593 277.182C26.4471 276.887 25.9097 276.457 25.4873 275.925C25.07 275.406 24.7756 274.8 24.6261 274.151C24.4767 273.502 24.4761 272.828 24.6245 272.179C27.6535 258.814 27.4632 244.92 24.0693 231.643C23.8546 230.769 23.9065 229.851 24.2183 229.006C24.5301 228.162 25.0875 227.43 25.8188 226.905C42.1723 215.143 55.0512 215.485 64.0981 227.921C64.5059 228.488 64.7769 229.142 64.8896 229.831C67.3069 244.363 67.4406 259.183 65.2861 273.756C65.1364 274.832 64.602 275.816 63.7819 276.528C62.9618 277.24 61.9116 277.631 60.8256 277.628Z" fill="#E6E6E6"/>
<path d="M50.9658 245.779H40.0252C39.4203 245.779 38.84 245.539 38.4122 245.111C37.9844 244.683 37.7441 244.103 37.7441 243.498C37.7441 242.893 37.9844 242.313 38.4122 241.885C38.84 241.457 39.4203 241.217 40.0252 241.217H50.9658C51.5699 241.218 52.1489 241.459 52.5757 241.887C53.0024 242.314 53.2421 242.894 53.2421 243.498C53.2421 244.102 53.0024 244.682 52.5757 245.109C52.1489 245.537 51.5699 245.778 50.9658 245.779Z" fill="white"/>
<path d="M50.9658 253.779H40.0252C39.4203 253.779 38.84 253.539 38.4122 253.111C37.9844 252.683 37.7441 252.103 37.7441 251.498C37.7441 250.893 37.9844 250.313 38.4122 249.885C38.84 249.457 39.4203 249.217 40.0252 249.217H50.9658C51.5699 249.218 52.1489 249.459 52.5757 249.887C53.0024 250.314 53.2421 250.894 53.2421 251.498C53.2421 252.102 53.0024 252.682 52.5757 253.109C52.1489 253.537 51.5699 253.778 50.9658 253.779Z" fill="white"/>
<path d="M50.9658 261.779H40.0252C39.4203 261.779 38.84 261.539 38.4122 261.111C37.9844 260.683 37.7441 260.103 37.7441 259.498C37.7441 258.893 37.9844 258.313 38.4122 257.885C38.84 257.457 39.4203 257.217 40.0252 257.217H50.9658C51.5699 257.218 52.1489 257.459 52.5757 257.887C53.0024 258.314 53.2421 258.894 53.2421 259.498C53.2421 260.102 53.0024 260.682 52.5757 261.109C52.1489 261.537 51.5699 261.778 50.9658 261.779Z" fill="white"/>
<path d="M638.826 419.628H607.022C606.343 419.629 605.672 419.477 605.06 419.182C604.447 418.887 603.91 418.457 603.488 417.925C603.07 417.406 602.776 416.8 602.626 416.151C602.477 415.502 602.476 414.828 602.625 414.179C605.654 400.814 605.463 386.92 602.07 373.643C601.855 372.769 601.907 371.851 602.219 371.006C602.53 370.162 603.088 369.43 603.819 368.905C620.173 357.143 633.051 357.485 642.098 369.921C642.506 370.488 642.777 371.142 642.89 371.831C645.307 386.363 645.441 401.183 643.286 415.756C643.137 416.832 642.602 417.816 641.782 418.528C640.962 419.24 639.912 419.631 638.826 419.628Z" fill="#E6E6E6"/>
<path d="M628.966 387.779H618.025C617.421 387.778 616.842 387.537 616.415 387.109C615.989 386.682 615.749 386.102 615.749 385.498C615.749 384.894 615.989 384.314 616.415 383.887C616.842 383.459 617.421 383.218 618.025 383.217H628.966C629.571 383.217 630.151 383.457 630.579 383.885C631.007 384.313 631.247 384.893 631.247 385.498C631.247 386.103 631.007 386.683 630.579 387.111C630.151 387.539 629.571 387.779 628.966 387.779Z" fill="white"/>
<path d="M628.966 395.779H618.025C617.421 395.778 616.842 395.537 616.415 395.109C615.989 394.682 615.749 394.102 615.749 393.498C615.749 392.894 615.989 392.314 616.415 391.887C616.842 391.459 617.421 391.218 618.025 391.217H628.966C629.571 391.217 630.151 391.457 630.579 391.885C631.007 392.313 631.247 392.893 631.247 393.498C631.247 394.103 631.007 394.683 630.579 395.111C630.151 395.539 629.571 395.779 628.966 395.779Z" fill="white"/>
<path d="M628.966 403.779H618.025C617.421 403.778 616.842 403.537 616.415 403.109C615.989 402.682 615.749 402.102 615.749 401.498C615.749 400.894 615.989 400.314 616.415 399.887C616.842 399.459 617.421 399.218 618.025 399.217H628.966C629.571 399.217 630.151 399.457 630.579 399.885C631.007 400.313 631.247 400.893 631.247 401.498C631.247 402.103 631.007 402.683 630.579 403.111C630.151 403.539 629.571 403.779 628.966 403.779Z" fill="white"/>
<path d="M759.17 614.136C759.171 614.293 759.14 614.448 759.08 614.592C759.021 614.737 758.933 614.868 758.823 614.979C758.712 615.089 758.581 615.177 758.436 615.237C758.291 615.296 758.136 615.327 757.98 615.326H1.69C1.37439 615.326 1.07172 615.201 0.848557 614.978C0.625388 614.755 0.5 614.452 0.5 614.136C0.5 613.821 0.625388 613.518 0.848557 613.295C1.07172 613.072 1.37439 612.946 1.69 612.946H757.98C758.136 612.946 758.291 612.976 758.436 613.036C758.581 613.096 758.712 613.183 758.823 613.294C758.933 613.404 759.021 613.536 759.08 613.68C759.14 613.825 759.171 613.98 759.17 614.136Z" fill="#CCCCCC"/>
<path d="M200.003 541.276L198.02 513.688C185.027 507.192 170.644 503.967 156.121 504.292C176.553 520.085 174.916 551.649 189.066 573.251C193.531 579.955 199.447 585.568 206.376 589.674C213.305 593.781 221.07 596.275 229.094 596.973L246.098 606.756C248.043 593.899 247.178 580.775 243.562 568.285C239.947 555.795 233.666 544.238 225.154 534.41C220.324 528.943 214.824 524.107 208.786 520.014C205.069 530.685 200.003 541.276 200.003 541.276Z" fill="#57B894"/>
<path d="M559.667 545.276L561.65 517.688C574.644 511.192 589.026 507.967 603.549 508.292C583.117 524.085 584.754 555.649 570.604 577.251C566.139 583.955 560.223 589.568 553.294 593.674C546.365 597.781 538.6 600.275 530.576 600.973L513.572 610.756C511.627 597.899 512.492 584.775 516.108 572.285C519.724 559.795 526.004 548.238 534.516 538.41C539.346 532.943 544.846 528.107 550.884 524.014C554.601 534.685 559.667 545.276 559.667 545.276Z" fill="#57B894"/>
<path d="M370.835 233.942C381.328 233.942 389.835 225.436 389.835 214.942C389.835 204.449 381.328 195.942 370.835 195.942C360.342 195.942 351.835 204.449 351.835 214.942C351.835 225.436 360.342 233.942 370.835 233.942Z" fill="var(--accent)"/>
<path d="M380.589 207.024C380.303 206.751 379.923 206.599 379.528 206.599C379.133 206.599 378.753 206.751 378.467 207.024C374.436 210.239 370.815 213.938 367.685 218.037C366.917 216.55 366.149 215.064 365.381 213.577C364.494 211.862 361.904 213.377 362.79 215.092C363.914 217.266 365.038 219.44 366.161 221.614C366.297 221.836 366.487 222.019 366.714 222.147C366.941 222.274 367.196 222.341 367.456 222.341C367.716 222.341 367.972 222.274 368.199 222.147C368.426 222.019 368.616 221.836 368.752 221.614C372.086 216.918 376.072 212.719 380.589 209.145C380.868 208.863 381.024 208.482 381.024 208.085C381.024 207.687 380.868 207.306 380.589 207.024Z" fill="white"/>
<path d="M285.82 268.82L257.168 223.824L290.346 206.056L299.054 240.385L360.409 273.54C362.832 272.668 365.455 272.52 367.96 273.114C370.465 273.707 372.744 275.017 374.517 276.883C376.291 278.749 377.483 281.091 377.949 283.623C378.415 286.155 378.134 288.767 377.14 291.142C376.147 293.517 374.484 295.552 372.354 296.998C370.224 298.444 367.719 299.239 365.145 299.287C362.571 299.334 360.039 298.631 357.858 297.264C355.676 295.897 353.939 293.925 352.859 291.588L285.82 268.82Z" fill="#A0616A"/>
<path d="M236.235 169.856C227.233 183.074 259.225 231.119 259.225 231.119C260.784 227.759 275.682 265.485 278.178 263.256C285.27 256.922 296.372 239.28 302.543 238.493C306.072 238.044 294.358 213.015 294.358 213.015C294.358 213.015 289.004 198.235 281.74 179.356C279.785 173.981 276.502 169.187 272.196 165.422C267.89 161.656 262.702 159.041 257.114 157.821C257.114 157.821 245.238 156.638 236.235 169.856Z" fill="#3F3D56"/>
<path d="M236.675 600.491L250.282 600.49L256.755 548.005L236.672 548.006L236.675 600.491Z" fill="#A0616A"/>
<path d="M233.204 596.048L237.034 596.048L251.987 589.967L260.001 596.047H260.002C264.531 596.047 268.875 597.847 272.077 601.049C275.28 604.252 277.079 608.595 277.08 613.124V613.679L233.204 613.681L233.204 596.048Z" fill="#2F2E41"/>
<path d="M299.891 600.491L313.498 600.49L319.972 548.005L299.889 548.006L299.891 600.491Z" fill="#A0616A"/>
<path d="M296.42 596.048L300.25 596.048L315.203 589.967L323.218 596.047H323.219C327.748 596.047 332.091 597.847 335.294 601.049C338.497 604.252 340.296 608.595 340.296 613.124V613.679L296.421 613.681L296.42 596.048Z" fill="#2F2E41"/>
<path d="M305.781 313.552L217.274 315.764C200.464 324.894 200.209 344.655 205.717 368.117C205.717 368.117 203.857 382.062 207.576 385.78C211.295 389.499 213.154 389.499 211.295 396.006C209.435 402.514 219.259 413.143 218.066 414.336C216.873 415.529 214.084 422.037 214.084 422.037L223.38 475.027C223.38 475.027 229.888 567.063 231.747 568.922C233.606 570.782 235.466 568.922 233.606 573.571C231.747 578.219 229.888 576.36 231.747 578.219C233.394 579.995 234.946 581.857 236.395 583.797H258.872C258.872 583.797 260.566 574.5 260.566 573.571C260.566 572.641 262.426 567.063 262.426 566.133C262.426 565.204 260.782 563.56 260.782 563.56C260.215 561.671 259.831 559.73 259.637 557.767C259.637 555.907 254.059 484.324 254.059 484.324L265.215 391.358L292.175 482.464C292.175 482.464 292.175 562.415 294.034 564.274C295.893 566.133 295.893 565.204 294.964 568.922C294.034 572.641 290.315 571.711 293.104 574.5C295.893 577.289 296.823 572.641 295.893 577.289L294.964 581.938L322.853 582.337C322.853 582.337 326.572 574.5 324.713 571.711C322.853 568.922 322.965 569.684 325.233 565.12C327.502 560.556 328.431 559.626 327.502 558.696C326.572 557.767 326.572 552.822 326.572 552.822L321.924 463.871C321.924 463.871 320.994 369.976 320.994 367.187C320.924 365.752 321.188 364.32 321.766 363.005V359.219L318.205 345.805L305.781 313.552Z" fill="#2F2E41"/>
<path d="M252.613 129.515C267.801 129.515 280.113 117.203 280.113 102.015C280.113 86.8277 267.801 74.5156 252.613 74.5156C237.426 74.5156 225.114 86.8277 225.114 102.015C225.114 117.203 237.426 129.515 252.613 129.515Z" fill="#A0616A"/>
<path d="M266.363 147.69C272.288 151.212 275.832 157.684 277.866 164.269C281.633 176.461 283.9 189.066 284.617 201.806L286.766 239.947L313.379 321.161C290.315 340.677 203.619 325.597 203.619 325.597C203.619 325.597 200.958 324.71 203.619 322.048C206.281 319.387 208.871 321.745 206.21 319.084C203.549 316.422 205.384 319.387 206.271 316.726C207.158 314.064 206.271 315.839 205.384 314.952C204.497 314.064 212.251 306.081 212.251 306.081L205.154 259.463L196.283 165.432C206.929 152.126 228.337 144.282 228.337 144.282L233.869 134.325L261.527 136.537L266.363 147.69Z" fill="#3F3D56"/>
<path d="M275.283 87.4052C277.42 88.9994 279.003 91.2237 279.81 93.7651C280.12 89.6119 280.14 85.4422 279.869 81.2863C279.545 78.366 277.489 77.7091 275.108 76.948C272.958 76.2603 270.527 75.4835 269.873 72.6485C261.228 64.2391 246.18 64.6631 235.882 67.5965C230.215 69.2106 226.954 71.2845 226.663 72.4994L226.602 72.7495L226.372 72.8645C222.004 75.0486 221.154 81.9454 221.21 87.3464C221.316 97.5222 224.83 109.079 226.809 110.018C226.914 110.068 226.94 110.048 226.986 110.011C229.966 107.629 233.602 110.192 235.2 111.585C236.143 105.26 239.177 99.4342 243.819 95.0367C248.461 90.6393 254.443 87.9243 260.81 87.3253C262.889 87.1244 264.951 86.7786 266.982 86.2903C268.012 86.0238 269.071 85.8849 270.135 85.8766C271.967 85.8487 273.763 86.3822 275.283 87.4052Z" fill="#2F2E41"/>
<path d="M445.997 335.464L498.897 281.746L512.834 238.783L490.406 229.711C479.296 240.918 467.859 275.226 467.859 275.226L431.753 323.684C431.465 323.791 431.177 323.905 430.894 324.039C429.232 324.823 427.8 326.024 426.737 327.524C425.674 329.024 425.016 330.772 424.827 332.601C424.637 334.429 424.923 336.276 425.655 337.962C426.388 339.648 427.543 341.116 429.009 342.225C430.475 343.334 432.203 344.046 434.024 344.293C435.846 344.539 437.701 344.311 439.409 343.632C441.117 342.952 442.62 341.843 443.775 340.412C444.929 338.982 445.694 337.277 445.997 335.464Z" fill="#FFB8B8"/>
<path d="M484.288 234.626L512.651 242.831L512.756 242.81C523.182 240.786 531.429 223.46 536.511 209.282C538.183 204.605 538.017 199.469 536.047 194.91C534.076 190.351 530.448 186.711 525.897 184.724C522.529 183.282 518.825 182.81 515.203 183.362C511.581 183.914 508.186 185.469 505.401 187.849L491.26 200.027L484.288 234.626Z" fill="var(--accent)"/>
<path d="M460.021 598.895L444.767 598.894L437.511 540.059L460.023 540.06L460.021 598.895Z" fill="#FFB8B8"/>
<path d="M463.912 593.915L459.619 593.914L442.856 587.098L433.872 593.913H433.871C428.794 593.914 423.925 595.931 420.335 599.521C416.744 603.111 414.727 607.98 414.727 613.057V613.679L463.911 613.681L463.912 593.915Z" fill="#2F2E41"/>
<path d="M527.704 598.895L512.45 598.894L505.194 540.059L527.707 540.06L527.704 598.895Z" fill="#FFB8B8"/>
<path d="M531.595 593.915L527.302 593.914L510.539 587.098L501.555 593.913H501.554C496.477 593.914 491.608 595.931 488.018 599.521C484.428 603.111 482.41 607.98 482.41 613.057V613.679L531.594 613.681L531.595 593.915Z" fill="#2F2E41"/>
<path d="M550.963 345.469C550.963 345.469 552.744 366.843 548.291 387.326C543.839 407.809 543.839 465.496 543.839 465.496L534.042 577.908L504.654 575.236L496.638 387.326L468.14 450.556L470.812 459.462L467.253 461.688C467.253 461.688 469.921 479.055 468.14 479.055C466.359 479.055 461.906 481.726 461.906 481.726L465.469 573.455L435.189 572.564L424.502 443.432L436.08 369.515L436.97 355.266L440.978 355.43L443.019 349.477L446.767 339.235L550.963 345.469Z" fill="#2F2E41"/>
<path d="M552.502 349.959L552.661 349.736C561.138 337.868 548.389 309.35 546.466 305.216L554.565 302.588L552.741 287.085L551.877 280.174L558.067 273.984L558.084 273.829L561.647 242.659L566.826 221.957C568.778 214.13 568.611 205.926 566.344 198.185C564.077 190.444 559.791 183.446 553.925 177.909L541.953 166.621L527.403 145.092H503.94L495.895 160.288C488.095 162.091 481.174 166.573 476.339 172.953C471.504 179.333 469.061 187.208 469.434 195.204L471.257 235.06L464.119 284.683L464.115 293.663L456.082 302.59L457.836 311.361L451.723 313.981L449.023 326.578C447.906 328.052 440.532 337.884 440.532 340.571C440.532 340.975 440.83 341.365 441.47 341.798C446.495 345.2 474.269 352.138 486.562 347.219C499.656 341.983 551.707 349.837 552.232 349.917L552.502 349.959Z" fill="var(--accent)"/>
<path d="M512.641 138.142C529.803 138.142 543.715 124.23 543.715 107.068C543.715 89.9057 529.803 75.9932 512.641 75.9932C495.479 75.9932 481.566 89.9057 481.566 107.068C481.566 124.23 495.479 138.142 512.641 138.142Z" fill="#FFB8B8"/>
<path d="M509.664 138.645C514.476 138.596 519.276 138.136 524.01 137.27C528.697 136.19 539.037 128.194 541.855 123.47C543.949 119.96 545.206 114.532 545.892 110.596C546.818 105.387 546.639 100.042 545.368 94.9066C544.097 89.7712 541.761 84.96 538.512 80.7846C537.26 79.0354 535.558 77.6572 533.587 76.7958C533.412 76.7327 533.233 76.6775 533.052 76.631C530.195 75.9575 527.604 74.4453 525.612 72.2885C525.225 71.8519 524.808 71.4437 524.362 71.067C522.128 69.278 519.502 68.0432 516.699 67.4635C512.17 66.3759 505.692 67.7387 497.445 71.5176C493.302 73.4161 488.704 72.8865 485.159 72.2129C484.961 72.1798 484.757 72.1993 484.568 72.2695C484.379 72.3397 484.212 72.4581 484.083 72.6129C482.62 74.0595 480.663 74.8986 478.606 74.9615C477.348 75.0494 476.071 76.8279 474.532 79.1439C474.183 79.6696 473.776 80.2832 473.48 80.6576L473.421 79.9545L472.729 80.7585C471.64 82.0221 470.89 83.5406 470.546 85.1726C470.203 86.8045 470.278 88.4969 470.764 90.092C471.251 91.6871 472.134 93.1331 473.33 94.2953C474.526 95.4576 475.996 96.2983 477.605 96.7391C478.881 97.0436 480.184 97.217 481.496 97.2566C482.29 97.3075 483.113 97.3601 483.902 97.4762C486.439 97.9277 488.815 99.0293 490.799 100.673C492.783 102.317 494.306 104.448 495.221 106.856C495.437 107.413 495.778 107.912 496.217 108.316C496.657 108.72 497.184 109.018 497.757 109.186C498.329 109.354 498.933 109.388 499.521 109.286C500.11 109.184 500.667 108.947 501.149 108.596C501.951 107.937 502.901 107.482 503.918 107.27C504.934 107.057 505.987 107.094 506.986 107.376C507.855 107.831 508.541 108.57 508.93 109.47C509.4 110.472 510.157 111.311 511.106 111.88C514.341 113.444 514.75 120.731 513.76 126.839C512.806 132.728 510.73 137.023 508.713 137.285C507.16 137.486 506.984 137.601 506.879 137.88L506.784 138.129L506.965 138.355C507.833 138.645 508.754 138.743 509.664 138.645Z" fill="#2F2E41"/>
<path d="M483.883 237.949L468.946 218.917C453.731 223.107 426.735 247.17 426.735 247.17L371.293 271.229C369.443 270.918 367.543 271.1 365.785 271.757C364.028 272.413 362.474 273.522 361.281 274.97C360.087 276.418 359.296 278.154 358.988 280.005C358.679 281.856 358.863 283.756 359.522 285.512C360.181 287.269 361.291 288.822 362.74 290.013C364.19 291.205 365.927 291.994 367.778 292.3C369.63 292.607 371.529 292.42 373.285 291.759C375.041 291.099 376.592 289.987 377.782 288.536L450.409 268.274L483.883 237.949Z" fill="#FFB8B8"/>
<path d="M480.303 242.3L503.871 216.027L505.179 197.411C505.423 193.756 504.639 190.105 502.917 186.871C501.194 183.638 498.602 180.95 495.432 179.113C491.119 176.651 486.032 175.919 481.199 177.065C476.366 178.21 472.149 181.148 469.4 185.284C461.072 197.835 452.114 214.804 456.723 224.371L456.77 224.468L480.303 242.3Z" fill="var(--accent)"/>
<path d="M263.079 341.05L201.825 309.678C197.468 307.447 196.025 301.528 198.608 296.485L238.547 218.501C241.13 213.457 246.776 211.169 251.133 213.401L312.388 244.772C316.745 247.004 318.188 252.922 315.605 257.966L275.666 335.95C273.083 340.993 267.436 343.281 263.079 341.05Z" fill="#E6E6E6"/>
<path d="M252.613 326.628L210.996 305.314C206.916 303.224 205.564 297.681 207.983 292.957L241.164 228.17C243.583 223.446 248.871 221.304 252.952 223.394L303.217 249.137C307.297 251.226 308.649 256.769 306.23 261.493L288.204 296.689C277.428 317.729 270.79 335.937 252.613 326.628Z" fill="white"/>
<path d="M273.19 291.248L236.328 272.37C235.878 272.048 235.558 271.576 235.426 271.038C235.295 270.501 235.362 269.934 235.614 269.441C235.867 268.948 236.288 268.563 236.801 268.355C237.313 268.147 237.884 268.131 238.408 268.309L275.269 287.188C275.72 287.509 276.04 287.981 276.171 288.519C276.303 289.057 276.236 289.624 275.984 290.116C275.731 290.609 275.31 290.994 274.797 291.202C274.284 291.41 273.714 291.426 273.19 291.248Z" fill="var(--accent)"/>
<path d="M240.632 284.7L232.22 280.392C231.769 280.071 231.449 279.598 231.318 279.06C231.187 278.523 231.253 277.956 231.506 277.463C231.758 276.971 232.179 276.585 232.692 276.377C233.205 276.169 233.775 276.153 234.299 276.331L242.712 280.639C243.162 280.96 243.482 281.433 243.614 281.971C243.745 282.508 243.678 283.075 243.426 283.568C243.173 284.06 242.752 284.446 242.239 284.654C241.727 284.862 241.156 284.878 240.632 284.7Z" fill="var(--accent)"/>
<path d="M251.422 300.353L228.111 288.414C227.66 288.093 227.34 287.62 227.209 287.083C227.078 286.545 227.145 285.978 227.397 285.486C227.649 284.993 228.07 284.608 228.583 284.4C229.096 284.192 229.667 284.175 230.191 284.354L253.502 296.292C253.953 296.613 254.273 297.086 254.404 297.624C254.535 298.161 254.468 298.728 254.216 299.221C253.964 299.713 253.543 300.099 253.03 300.307C252.517 300.515 251.946 300.531 251.422 300.353Z" fill="var(--accent)"/>
<path d="M287.777 262.766L250.915 243.888C250.465 243.566 250.145 243.094 250.013 242.556C249.882 242.019 249.949 241.452 250.201 240.959C250.453 240.467 250.875 240.081 251.387 239.873C251.9 239.665 252.471 239.649 252.995 239.827L289.856 258.706C290.307 259.027 290.627 259.499 290.758 260.037C290.889 260.575 290.823 261.142 290.57 261.634C290.318 262.127 289.897 262.512 289.384 262.72C288.871 262.928 288.301 262.944 287.777 262.766Z" fill="var(--accent)"/>
<path d="M255.219 256.218L246.807 251.91C246.356 251.589 246.036 251.116 245.905 250.578C245.774 250.041 245.84 249.474 246.093 248.981C246.345 248.489 246.766 248.103 247.279 247.895C247.792 247.687 248.362 247.671 248.886 247.849L257.299 252.157C257.749 252.479 258.069 252.951 258.2 253.489C258.332 254.026 258.265 254.593 258.013 255.086C257.76 255.579 257.339 255.964 256.826 256.172C256.313 256.38 255.743 256.396 255.219 256.218Z" fill="var(--accent)"/>
<path d="M266.009 271.871L242.698 259.932C242.247 259.611 241.927 259.138 241.796 258.601C241.665 258.063 241.732 257.496 241.984 257.004C242.236 256.511 242.657 256.126 243.17 255.918C243.683 255.71 244.254 255.694 244.778 255.872L268.089 267.81C268.54 268.131 268.86 268.604 268.991 269.142C269.122 269.679 269.055 270.246 268.803 270.739C268.551 271.231 268.13 271.617 267.617 271.825C267.104 272.033 266.533 272.049 266.009 271.871Z" fill="var(--accent)"/>
<path d="M212.32 273.158L198.482 221.64L235.462 214.64L233.473 250.001L282.061 300.031C284.633 299.926 287.18 300.571 289.392 301.889C291.604 303.206 293.384 305.139 294.517 307.451C295.649 309.763 296.084 312.354 295.769 314.909C295.454 317.464 294.402 319.873 292.742 321.84C291.082 323.808 288.886 325.25 286.42 325.991C283.955 326.732 281.327 326.739 278.857 326.012C276.387 325.286 274.183 323.856 272.511 321.898C270.84 319.939 269.775 317.537 269.445 314.984L212.32 273.158Z" fill="#A0616A"/>
<path d="M194.698 163.879C182.146 173.788 198.257 229.216 198.257 229.216C200.751 226.479 203.65 266.936 206.699 265.559C215.364 261.643 231.246 248.142 237.369 249.243C240.87 249.872 237.202 222.482 237.202 222.482C237.202 222.482 236.527 206.778 235.259 186.589C235.006 180.874 233.312 175.317 230.333 170.434C227.355 165.55 223.19 161.5 218.225 158.659C218.225 158.659 207.25 153.97 194.698 163.879Z" fill="#3F3D56"/>
<path d="M403.554 387.504L370.128 371.72C369.413 371.384 368.783 370.891 368.286 370.277C367.789 369.663 367.438 368.945 367.258 368.176C367.076 367.424 367.068 366.64 367.233 365.884C367.398 365.128 367.732 364.42 368.21 363.811C377.892 351.436 384.541 336.965 387.623 321.558C387.855 320.378 388.49 319.315 389.419 318.551C390.348 317.787 391.512 317.369 392.715 317.367C409.763 317.425 422.504 323.65 430.583 335.866C431.009 336.502 431.291 337.223 431.41 337.978C431.529 338.734 431.482 339.507 431.271 340.242C426.593 356.366 419.475 371.679 410.163 385.649C409.472 386.705 408.422 387.475 407.206 387.816C405.991 388.157 404.694 388.046 403.554 387.504Z" fill="#E6E6E6"/>
<path d="M413.387 365.366L387.829 353.297C387.193 352.997 386.702 352.457 386.465 351.795C386.228 351.133 386.263 350.404 386.563 349.768C386.864 349.132 387.404 348.641 388.066 348.404C388.728 348.167 389.457 348.202 390.093 348.502L415.651 360.571C415.966 360.72 416.248 360.929 416.482 361.187C416.716 361.445 416.897 361.746 417.015 362.074C417.132 362.402 417.184 362.749 417.167 363.097C417.15 363.445 417.065 363.786 416.916 364.101C416.768 364.416 416.559 364.698 416.301 364.932C416.043 365.166 415.741 365.347 415.414 365.464C415.086 365.582 414.738 365.634 414.391 365.617C414.043 365.6 413.702 365.515 413.387 365.366Z" fill="white"/>
<path d="M417.357 356.958L391.799 344.889C391.163 344.589 390.673 344.048 390.436 343.386C390.198 342.724 390.234 341.995 390.534 341.36C390.834 340.724 391.375 340.233 392.037 339.996C392.699 339.759 393.428 339.794 394.063 340.094L419.622 352.163C420.257 352.463 420.748 353.004 420.985 353.666C421.223 354.328 421.187 355.057 420.887 355.693C420.587 356.328 420.046 356.819 419.384 357.056C418.722 357.294 417.993 357.258 417.357 356.958Z" fill="white"/>
<path d="M383.206 93.0151L380.827 93.2757C370.219 51.5913 349.659 22.7129 321.365 9.7617C285.398 -6.70151 240.922 4.35384 196.131 40.8917C151.113 77.6161 111.26 135.625 83.9142 204.235L81.6057 203.178C109.071 134.269 149.129 75.9797 194.4 39.0512C239.898 1.93596 285.281 -9.20045 322.189 7.69382C351.294 21.0161 372.393 50.5198 383.206 93.0151Z" fill="#F2F2F2"/>
<path d="M120.732 147.304C114.51 160.41 108.593 173.989 103.143 187.662C71.7824 266.344 55.8903 346.699 57.1889 420.045L54.7379 419.784C53.4379 346.165 69.3758 265.533 100.835 186.605C106.3 172.894 112.235 159.277 118.474 146.133L120.732 147.304Z" fill="#F2F2F2"/>
<path d="M119.556 201.367C113.334 214.474 107.416 228.052 101.966 241.725C70.6059 320.407 54.7137 400.763 56.0124 474.109L53.5614 473.847C52.2614 400.229 68.1993 319.596 99.658 240.669C105.123 226.957 111.058 213.34 117.298 200.197L119.556 201.367Z" fill="#F2F2F2"/>
<path d="M53.6793 221.029C56.3887 216.957 54.785 211.127 50.0974 208.009C45.4097 204.89 39.4132 205.663 36.7037 209.736C33.9943 213.808 35.598 219.638 40.2856 222.756C44.9733 225.875 50.9699 225.102 53.6793 221.029Z" fill="#CCCCCC"/>
<path d="M630.621 368.098C633.331 364.026 631.727 358.196 627.039 355.078C622.352 351.959 616.355 352.732 613.646 356.804C610.936 360.877 612.54 366.706 617.228 369.825C621.915 372.944 627.912 372.171 630.621 368.098Z" fill="#CCCCCC"/>
</g>
<defs>
<clipPath id="clip0_23_88">
<rect width="758.67" height="615.326" fill="white" transform="translate(0.5)"/>
</clipPath>
</defs>
</svg>
