<svg width="100%" height="100%" viewBox="0 0 100% 100%" fill="none" xmlns="http://www.w3.org/2000/svg">
    <g clip-path="url(#clip0_39_5)">
        <path
            d="M204 0L197.7 25C191.3 50 178.7 100 180.7 150C182.7 200 199.3 250 216.7 300C234 350 252 400 272.3 450C292.7 500 315.3 550 326.7 575L338 600H0V575C0 550 0 500 0 450C0 400 0 350 0 300C0 250 0 200 0 150C0 100 0 50 0 25V0H204Z"
            fill="var(--hover-icon)" />
    </g>
    <defs>
        <clipPath id="clip0_39_5">
            <rect width="900" height="600" fill="white" />
        </clipPath>
    </defs>
</svg>